<svg height="512" viewBox="0 0 512 512" width="512" xmlns="http://www.w3.org/2000/svg"><g><g fill="#57a4ff"><path d="m324.57 64-68.57-48-68.57 48-123.43 86.4-48 33.6v48l48-33.6 192-134.4 192 134.4 48 33.6v-48l-48-33.6z"/><path d="m16 464h480v32h-480z"/><path d="m336 344 8-128-88-32-88 32 8 128 80 48z"/></g><g fill="#004fac"><path d="m491.41 238.55a8 8 0 0 0 12.59-6.55v-48a7.978 7.978 0 0 0 -3.41-6.55l-240-168a8 8 0 0 0 -9.18 0l-240 168a7.978 7.978 0 0 0 -3.41 6.55v48a8 8 0 0 0 12.59 6.55l35.41-24.78v242.23h-40a8 8 0 0 0 -8 8v32a8 8 0 0 0 8 8h480a8 8 0 0 0 8-8v-32a8 8 0 0 0 -8-8h-40v-242.23zm-3.41 233.45v16h-464v-16zm-416-16v-253.43l184-128.8 184 128.8v253.43zm188.59-398.55a7.99 7.99 0 0 0 -9.18 0l-227.41 159.18v-28.46l232-162.4 232 162.4v28.46z"/><circle cx="256" cy="304" r="8"/><path d="m277.336 280.15a32 32 0 0 0 -42.672 0 8 8 0 0 0 10.671 11.922 16 16 0 0 1 21.33 0 8 8 0 0 0 10.671-11.922z"/><path d="m218.665 262.262a8 8 0 0 0 10.67 11.922 40 40 0 0 1 53.33 0 8 8 0 0 0 10.67-11.922 56 56 0 0 0 -74.67 0z"/><path d="m346.73 208.48-88-32a8 8 0 0 0 -5.46 0l-88 32a7.984 7.984 0 0 0 -5.25 8.02l8 128a8 8 0 0 0 3.86 6.36l80 48a8.015 8.015 0 0 0 8.24 0l80-48a8 8 0 0 0 3.86-6.36l8-128a7.984 7.984 0 0 0 -5.25-8.02zm-18.45 130.82-72.28 43.37-72.28-43.37-7.36-117.83 79.64-28.96 79.64 28.96z"/></g></g></svg>